PathFileType	4	(X/Y/Z)	22_2_23_p1_0-186_filt_butterworth.trc
DataRate	CameraRate	NumFrames	NumMarkers	Units	OrigDataRate	OrigDataStartFrame	OrigNumFrames
60.0	60.0	6	27	m	60.0	46	186
Frame#	Time	RHip			RKnee			RAnkle			RBigToe			RSmallToe			RHeel			LHip			LKnee			LAnkle			LBigToe			LSmallToe			LHeel			Neck			Head			Nose			RShoulder			RElbow			RWrist			RThumb			RIndex			RPinky			LShoulder			LElbow			LWrist			LThumb			LIndex			LPinky			
		X1	Y1	Z1	X2	Y2	Z2	X3	Y3	Z3	X4	Y4	Z4	X5	Y5	Z5	X6	Y6	Z6	X7	Y7	Z7	X8	Y8	Z8	X9	Y9	Z9	X10	Y10	Z10	X11	Y11	Z11	X12	Y12	Z12	X13	Y13	Z13	X14	Y14	Z14	X15	Y15	Z15	X16	Y16	Z16	X17	Y17	Z17	X18	Y18	Z18	X19	Y19	Z19	X20	Y20	Z20	X21	Y21	Z21	X22	Y22	Z22	X23	Y23	Z23	X24	Y24	Z24	X25	Y25	Z25	X26	Y26	Z26	X27	Y27	Z27	
46	0.7666666666666667	0.2795169312602549	0.6616053297541203	1.0570062388587251	0.28064088041486973	0.7667819188915889	1.424627659226012	0.296182909961413	0.9430202025869052	1.829490575603546	0.24975108652432887	0.7094784917855788	1.8739474161122267	0.30409627713882315	0.7546252006689381	1.884202874036626	0.2948931508887863	1.0261532148297978	1.8798350496292926	0.051718430710156624	0.662051843874074	1.0573917841263776	0.08491618386812964	0.7962158208958195	1.4302535862095387	0.09951468909785328	0.9160344240852801	1.8191578655864626	0.09736397277543593	0.74414526282914	1.8811312534459972	0.050818970021769626	0.7875096095980377	1.8811827410759876	0.12822274766038236	0.9749051639561968	1.871901021704535	0.12784870117275335	0.45789200111847284	0.48821550007060355	0.10390570011727529	0.34428268888534963	0.25096232711182137	0.09044267530544108	0.30196842050718103	0.4135318208119237	0.2703080092015543	0.4605995174002261	0.5578313735516147	0.32279529741872437	0.41305784883335256	0.8000711791283436	0.1739994447906163	0.250623934670386	0.9063613021669463	0.07655814555417045	0.23813623273632933	0.9686425524803873	0.07395672376808438	0.2188826998243548	0.9778297472289942	0.10598923972135313	0.21252041001079436	0.9985308515772048	-0.03715096600187009	0.4773293438481954	0.5676771612435734	-0.05608817877139391	0.5499556990222801	0.8339709710731877	-0.015662312591707445	0.5659424670520832	1.073860105145382	0.03993462035854191	0.5286436488380204	1.1598220616124766	0.02948964545291127	0.5258784716242233	1.186651832398585	-0.009082940451696154	0.600209639061767	1.205718487136941
47	0.7833333333333333	0.2791409819847926	0.6605578434844742	1.05689197885955	0.28019784550960697	0.7659983427528031	1.425992043584609	0.2961959811505591	0.9430216811952863	1.8294818646352897	0.24957297048848662	0.7096224317070623	1.8740377963671835	0.303955547633525	0.7551441273958278	1.8832477447683613	0.29484999884616864	1.0262240241984648	1.8798625289362558	0.05407892024825966	0.6522009270481116	1.0564260439415571	0.0851086977265488	0.7968822402931615	1.4328192083299722	0.09945563182463797	0.9161432907180678	1.8191271705873082	0.09727830307870679	0.744508410726608	1.881599045241066	0.05071681203958078	0.787932918141084	1.881289062120226	0.1298498760346856	0.9789609159134405	1.8721991075428661	0.1277604084603632	0.4579371571349412	0.48822372981775886	0.10422846807431622	0.34283868332174455	0.2518742847909178	0.09147007629500643	0.30205625870021313	0.4134997229161198	0.27048256234657647	0.4600647819730731	0.5573171889030055	0.3207478203319344	0.40760475216760195	0.7983309368009097	0.16790790332711605	0.23889778704605946	0.880922355450959	0.05430211075860231	0.20333176427623442	0.9191835226604966	0.05068281510563565	0.18617885157403574	0.9320727174194002	0.08944215993183663	0.19681445149906784	0.962657926560294	-0.037172358457918636	0.4788856351403367	0.5675945576118826	-0.05459668298873236	0.549814396441704	0.8330671136211041	-0.018211864305787077	0.5705426925192456	1.0734139225746353	0.04011235666573648	0.5348933907055541	1.1645696456151444	0.027676389410826154	0.5313412040762824	1.189922579686716	-0.019959924813001215	0.5943821859624578	1.1971311834774574
48	0.8	0.27786315317004734	0.6598808452327791	1.0527299669727768	0.2813394945369968	0.7686077631003189	1.4275723203283066	0.29620025934883254	0.9430140989385803	1.8294646307688474	0.24935793836426345	0.7096888012265867	1.8741202277144324	0.30373847254905134	0.7557078739890108	1.8819828493736777	0.29483497012603527	1.0262611688804935	1.8798829000524024	0.05684954090055584	0.6461978154709506	1.0537629477697774	0.08525305058352305	0.7975986761469473	1.4350459619246798	0.0994132785030594	0.9164150542411549	1.8190799222358691	0.0972776288570345	0.7446489285721293	1.8816852286393877	0.05062525538724536	0.7883543666752744	1.8812897626035747	0.13094104506639198	0.9836662866155653	1.8721384711899178	0.1277251849312278	0.4578421802257818	0.48787984251797845	0.10484242059158994	0.33967966610161154	0.2532904248492715	0.09282470068186358	0.30219521364681373	0.41342904719150736	0.2706211797270431	0.4597603780169557	0.5573987118312782	0.3179656596943788	0.40252954326009033	0.7960617452041348	0.16146708866459347	0.2279924969282395	0.8550729116343103	0.03394583889092388	0.17594686540546878	0.8734928349745109	0.032143180822094074	0.16208495772463988	0.8892506543107892	0.074965797675949	0.18089240132440843	0.9281995147242478	-0.03669183842032782	0.4819010021981022	0.5671057655113402	-0.053438355284928914	0.5495586913423485	0.8304280479338315	-0.019239140873758307	0.5731011780337337	1.0728054339898065	0.038396879203828754	0.5344025315574098	1.1673667918516268	0.024826566380565074	0.5340394641082095	1.1911354230980347	-0.0283033886895384	0.5878416097317569	1.1895001850496794
49	0.8166666666666667	0.27669202001881676	0.6579664929811208	1.0477898957271716	0.2835249986399036	0.7734633950325486	1.4290903038938754	0.29619654153127245	0.9430040545326062	1.8294531457181362	0.24920021354853406	0.7097498867201303	1.8742075641567837	0.3035794902483984	0.7561360593541258	1.881034608183478	0.29480588842339767	1.026282822162981	1.8798934464006556	0.05888615091628173	0.6444760264004021	1.0512318973209136	0.08546946921187418	0.7980807965212944	1.436446967772306	0.09939709571669351	0.9166650490962283	1.8190194358716372	0.09731332961790609	0.744702834904948	1.8818707112011601	0.050543551896791966	0.7887386833995398	1.8812332924035426	0.13129955886959052	0.9868687332356845	1.8719158393064115	0.12802401701967497	0.45748018007113145	0.48696426016301186	0.1055496124353896	0.3356893141590727	0.254590567833196	0.0938644241076131	0.3023375000926052	0.4133537431192364	0.2704430012952613	0.4594688540927845	0.557565865603556	0.314385594034648	0.3994741714589876	0.7943278119450831	0.15531557299370258	0.22030391438831826	0.828718265377731	0.020932446733192056	0.16145654507333887	0.8313228133080672	0.021432303519565515	0.14821192495181307	0.8473733448360397	0.06275845959475113	0.1660760199816233	0.8941889318152909	-0.03525349954340971	0.4855755860593708	0.56593924616042	-0.05300729808494238	0.5492555851825467	0.8270168253907146	-0.0195076631512482	0.5740425245665247	1.0724775940295541	0.03485618544510132	0.5307028646920482	1.1677642851199108	0.021378762838117626	0.5348566679450928	1.1910263580421172	-0.0333282693447606	0.5841444520173964	1.1858039530100752
50	0.8333333333333334	0.27632316910742827	0.6535981298326902	1.044143055983017	0.2854546592689264	0.7779431533044777	1.430632873706832	0.29618868789759406	0.9429941944676272	1.829455872046935	0.2491628192981344	0.709877437796759	1.8743169281357472	0.303516823846414	0.7562922790606919	1.8806766933877672	0.29474545569284427	1.026302368675354	1.8798909628964804	0.059547995365843376	0.644833609806038	1.0500032727418291	0.0856374398371767	0.7982760375080841	1.4368334174849877	0.09938939594384978	0.9168044418277754	1.8189406697060835	0.09738514412294012	0.7447379889535817	1.8825042003420125	0.050530331858799536	0.7889181427938798	1.8811950206290335	0.131240142368419	0.9879684766229342	1.8717879785263056	0.12893788026814898	0.45701431485894023	0.48570622971468347	0.10603485347442086	0.3327092463716871	0.25522109690363026	0.09429768623933701	0.30243689009611435	0.41330454899552216	0.2694382358262148	0.45909962361707546	0.5572931096563207	0.3094572528270436	0.3985847980856562	0.7946467487093679	0.1493855334751737	0.2160242698312232	0.8030466935822228	0.01529576928800753	0.15548582274005388	0.7911529397887318	0.016560859991319475	0.13996581611167785	0.805967184024294	0.052211916528184896	0.1525530691312716	0.8589972631788318	-0.03294884570970527	0.4880799366371063	0.564334239103672	-0.05302638486784038	0.549003699494032	0.8245864336667276	-0.019557982264938385	0.5741499343369579	1.0724018092795669	0.03130127591146851	0.5280375299718691	1.16680548776477	0.01871769316551471	0.5353991610659847	1.1898087888366204	-0.035345849885053876	0.5829112321789958	1.184619660045539
51	0.85	0.27664634755926437	0.6479457281448152	1.0416256206405612	0.28634540629325317	0.7802785179521917	1.4311422646233758	0.29617990381644227	0.9429948011292171	1.8294669232810779	0.24922324343295849	0.7100402429515108	1.8744293048156444	0.3034752123432893	0.7561439125906398	1.8806703897790165	0.2946909683122787	1.0263110613960869	1.8798814578098748	0.05959628729215202	0.6453566773026691	1.049881462889447	0.08557598935271568	0.7981377880511509	1.4361694456420837	0.0993759009018084	0.9168538345737695	1.8188578091414138	0.09749984853857184	0.7447184489409375	1.8833562653094913	0.050623522490240255	0.7887829405622537	1.8812302433315091	0.1311154130784797	0.9879374069502778	1.871805024630398	0.13025458367913767	0.4567779855532313	0.4846992725125542	0.10620055844835599	0.33159602006293704	0.25532464511666725	0.0943437596606388	0.30247683017314875	0.413288434252186	0.2675516979354512	0.45867199546818804	0.5561127519007093	0.30197929640884885	0.3964312645165279	0.7967228309588992	0.1422229692113705	0.20973890447223845	0.7793267240339188	0.013322979949146621	0.15045956033120456	0.7526648662896442	0.013629691963206906	0.13214849368792445	0.7658243389969778	0.04101557630439888	0.14045845995753076	0.8216785711541542	-0.030619746176052842	0.488578682788172	0.5629804591184013	-0.0532286907852277	0.5487022086072485	0.8238022280984941	-0.019600678333881284	0.5740819042772927	1.0724274984948512	0.02930717740333138	0.5273508516131644	1.1656679858409507	0.01787223713456851	0.5353331078655438	1.1873141211640308	-0.035339900497258166	0.5830191476458799	1.1832982291973264
